<?xml version="1.0" encoding="iso-8859-1"?>
<!-- Uploaded to: SVG Repo, www.svgrepo.com, Generator: SVG Repo Mixer Tools -->
<svg version="1.1" id="Layer_1" xmlns="http://www.w3.org/2000/svg" xmlns:xlink="http://www.w3.org/1999/xlink" 
	 viewBox="0 0 509 509" xml:space="preserve">
<circle style="fill:#76D95B;" cx="254.5" cy="254.5" r="254.5"/>
<rect x="186.5" y="287.7" style="fill:#A37714;" width="275" height="32.4"/>
<path style="fill:#66480C;" d="M429.1,297.8H244.9c-12.3,0-22.3,10-22.3,22.3h228.9C451.4,307.8,441.4,297.8,429.1,297.8z"/>
<g>
	<rect x="195.4" y="127.4" style="fill:#C49622;" width="266.1" height="160.3"/>
	<path style="fill:#C49622;" d="M186.5,188.3h-49.7c-10.4,0-20,5.5-25.2,14.5l-16.5,28.3c-3.8,6.6-10,11.4-17.4,13.4l-25.6,7.2
		c-12.6,3.5-21.3,15-21.3,28.1v40.3h155.7V188.3z"/>
</g>
<path style="fill:#080708;" d="M151.1,320.1L125.8,288c0,0-29.4-16.4-66-5.8l-14,37.9H151.1z"/>
<rect x="20.4" y="295.1" style="fill:#393D47;" width="19.2" height="24.9"/>
<path style="fill:#D8AE4E;" d="M50.8,320.1l13.3-33.3h35.1c13.4,0,25.9,6.7,33.3,17.9l10.3,15.4H161l-14.9-21.4
	c-10-14.6-26.6-23.2-44.3-23.2h-47l-15.7,44.6H50.8z"/>
<circle style="fill:#333842;" cx="295.7" cy="341.3" r="40.4"/>
<circle style="fill:#646B79;" cx="295.7" cy="341.3" r="24"/>
<circle style="fill:#4F5565;" cx="295.7" cy="341.3" r="10.6"/>
<circle style="fill:#333842;" cx="390.5" cy="341.3" r="40.4"/>
<circle style="fill:#646B79;" cx="390.5" cy="341.3" r="24"/>
<circle style="fill:#4F5565;" cx="390.5" cy="341.3" r="10.6"/>
<circle style="fill:#333842;" cx="98.4" cy="338.5" r="43.1"/>
<circle style="fill:#646B79;" cx="98.4" cy="338.5" r="25.6"/>
<circle style="fill:#4F5565;" cx="98.4" cy="338.5" r="11.3"/>
<g>
	<path style="fill:#414753;" d="M132.4,198.1c-5.3,1.2-10,4.6-12.8,9.4l-16.5,28.3c-0.9,1.6-1.9,3-3,4.4h20.6L132.4,198.1z"/>
	<polygon style="fill:#414753;" points="138.2,197.6 126.3,240.2 177.2,240.2 177.2,197.6 	"/>
</g>
<rect x="186.5" y="127.4" style="fill:#A37714;" width="8.9" height="160.3"/>
<g>
	<rect x="205.5" y="127.4" style="fill:#D8AE4E;" width="6" height="160.3"/>
	<rect x="229.5" y="127.4" style="fill:#D8AE4E;" width="6" height="160.3"/>
	<rect x="253.5" y="127.4" style="fill:#D8AE4E;" width="6" height="160.3"/>
	<rect x="277.5" y="127.4" style="fill:#D8AE4E;" width="6" height="160.3"/>
	<rect x="301.5" y="127.4" style="fill:#D8AE4E;" width="6" height="160.3"/>
	<rect x="325.5" y="127.4" style="fill:#D8AE4E;" width="6" height="160.3"/>
	<rect x="349.5" y="127.4" style="fill:#D8AE4E;" width="6" height="160.3"/>
	<rect x="373.4" y="127.4" style="fill:#D8AE4E;" width="6" height="160.3"/>
	<rect x="397.4" y="127.4" style="fill:#D8AE4E;" width="6" height="160.3"/>
	<rect x="421.4" y="127.4" style="fill:#D8AE4E;" width="6" height="160.3"/>
	<rect x="445.4" y="127.4" style="fill:#D8AE4E;" width="6" height="160.3"/>
</g>
</svg>