<svg width="357" height="256" viewBox="0 0 357 256" fill="none" xmlns="http://www.w3.org/2000/svg">
<g filter="url(#filter0_d_24_30)">
<path d="M172.574 214.067C172.574 222.754 170.946 230.546 168.379 236.11C165.753 241.802 162.428 244.63 159.281 244.63C156.134 244.63 152.809 241.802 150.183 236.11C147.616 230.546 145.989 222.754 145.989 214.067C145.989 205.38 147.616 197.588 150.183 192.024C152.809 186.332 156.134 183.505 159.281 183.505C162.428 183.505 165.753 186.332 168.379 192.024C170.946 197.588 172.574 205.38 172.574 214.067Z" stroke="black" stroke-width="3"/>
<path d="M91.4522 203.687C91.4522 209.547 90.5873 214.786 89.2362 218.507C88.5584 220.374 87.7867 221.778 87.0053 222.689C86.2195 223.604 85.5632 223.87 85.0786 223.87C84.594 223.87 83.9377 223.604 83.152 222.689C82.3706 221.778 81.5989 220.374 80.9211 218.507C79.57 214.786 78.7051 209.547 78.7051 203.687C78.7051 197.827 79.57 192.588 80.9211 188.867C81.5989 187.001 82.3706 185.596 83.152 184.686C83.9377 183.77 84.594 183.505 85.0786 183.505C85.5632 183.505 86.2195 183.77 87.0053 184.686C87.7867 185.596 88.5584 187.001 89.2362 188.867C90.5873 192.588 91.4522 197.827 91.4522 203.687Z" stroke="black" stroke-width="3"/>
<path d="M37.0531 194.461C37.0531 199.093 36.6056 203.238 35.9057 206.184C35.553 207.668 35.1552 208.765 34.7681 209.454C34.6596 209.647 34.5684 209.781 34.497 209.873C34.4255 209.781 34.3344 209.647 34.2259 209.454C33.8388 208.765 33.441 207.668 33.0883 206.184C32.3884 203.238 31.9409 199.093 31.9409 194.461C31.9409 189.828 32.3884 185.683 33.0883 182.738C33.441 181.253 33.8388 180.157 34.2259 179.468C34.3344 179.275 34.4255 179.141 34.497 179.049C34.5684 179.141 34.6596 179.275 34.7681 179.468C35.1552 180.157 35.553 181.253 35.9057 182.738C36.6056 185.683 37.0531 189.828 37.0531 194.461Z" stroke="black" stroke-width="3"/>
<path d="M29.8949 192.846C29.8949 197.024 29.4489 200.753 28.756 203.393C28.4066 204.724 28.016 205.694 27.643 206.295C27.5147 206.502 27.4121 206.63 27.3388 206.708C27.2655 206.63 27.1629 206.502 27.0345 206.295C26.6615 205.694 26.271 204.724 25.9216 203.393C25.2287 200.753 24.7827 197.024 24.7827 192.846C24.7827 188.669 25.2287 184.939 25.9216 182.299C26.271 180.968 26.6615 179.998 27.0345 179.397C27.1629 179.19 27.2655 179.062 27.3388 178.984C27.4121 179.062 27.5147 179.19 27.643 179.397C28.016 179.998 28.4066 180.968 28.756 182.299C29.4489 184.939 29.8949 188.669 29.8949 192.846Z" stroke="black" stroke-width="3"/>
<path d="M21.7832 191.693C21.7832 195.568 21.4414 199.032 20.9089 201.487C20.6797 202.544 20.4275 203.355 20.1815 203.916C19.9356 203.355 19.6834 202.544 19.4542 201.487C18.9216 199.032 18.5798 195.568 18.5798 191.693C18.5798 187.817 18.9216 184.354 19.4542 181.898C19.6834 180.842 19.9356 180.03 20.1815 179.469C20.4275 180.03 20.6797 180.842 20.9089 181.898C21.4414 184.354 21.7832 187.817 21.7832 191.693Z" stroke="black" stroke-width="3"/>
<line y1="-1.5" x2="147.67" y2="-1.5" transform="matrix(0.746463 -0.665427 0.690181 0.723636 10.3989 108.653)" stroke="black" stroke-width="3"/>
<path d="M339.18 200.458C345.405 196.771 346.576 200.227 345.383 201.842" stroke="black" stroke-width="3"/>
<path d="M218.987 196.987C211.915 177.969 207.807 169.428 199.899 162.848" stroke="black" stroke-width="3"/>
<path d="M343.236 174.623C345.388 173.173 336.563 201.761 339.18 200.458" stroke="black" stroke-width="3"/>
<path d="M334.408 206.455C333.931 208.762 347.531 202.073 345.622 200.689" stroke="black" stroke-width="3"/>
<path d="M334.408 206.455C339.722 182.415 341.16 176.058 343.494 174.491" stroke="black" stroke-width="3"/>
<path d="M204.852 193.999C205.091 192.615 220.029 198.373 218.691 196.306" stroke="black" stroke-width="3"/>
<path d="M204.852 193.999C204.389 196.907 208.15 207.792 233.011 209.915" stroke="black" stroke-width="3"/>
<path d="M200.319 162.891C214.396 152.479 233.006 210.146 232.767 209.915" stroke="black" stroke-width="3"/>
<path d="M197.217 35.0709C195.547 30.2269 325.341 41.9909 326.296 45.6815" stroke="black" stroke-width="3"/>
<line y1="-1.5" x2="90.1992" y2="-1.5" transform="matrix(-0.999942 0.010765 -0.0115176 -0.999934 328.423 175.341)" stroke="black" stroke-width="3"/>
<path d="M238.704 176.775C237.511 176.769 237 178.746 239.616 185.314C243.827 187.841 251.052 188.826 253.671 189.991C256.289 191.157 315.465 190.274 315.465 190.274C322.436 187.81 324.633 186.231 326.476 183.174C328.024 180.214 328.844 178.554 327.944 175.569" stroke="black" stroke-width="3"/>
<path d="M325.474 199.24L243.885 200.09" stroke="black" stroke-width="3"/>
<path d="M244.31 200.092C243.23 200.087 242.769 201.818 245.135 207.568C248.944 209.78 255.479 210.643 257.848 211.664C260.217 212.684 313.747 211.911 313.747 211.911C320.053 209.754 322.04 208.371 323.707 205.695C325.108 203.103 325.849 201.649 325.036 199.036" stroke="black" stroke-width="3"/>
<path d="M326.296 45.6816C326.296 45.6816 339.18 94.5826 336.078 93.8906" stroke="black" stroke-width="3"/>
<path d="M242.826 218.912C259.784 220.54 265.195 220.429 269.568 218.912L304.164 217.527C313.609 218.634 318.916 216.998 326.574 214.759" stroke="black" stroke-width="3"/>
<path d="M243.614 219.738C236.435 200.021 234.004 188.985 229.059 169.359L226.673 164.839C226.362 161.318 226.701 160.23 227.628 158.842L226.922 136.33" stroke="black" stroke-width="3"/>
<path d="M326.161 215.217C331.031 196.711 332.133 187.997 334.511 169.777C334.656 167.19 334.343 165.994 332.126 164.933L332.125 159.858L334.511 159.858L334.75 137.714" stroke="black" stroke-width="3"/>
<path d="M226.087 135.869L334.647 138.175" stroke="black" stroke-width="3"/>
<path d="M201.512 82.588C220.772 88.9236 323.433 93.8906 336.555 93.8906" stroke="black" stroke-width="3"/>
<path d="M79.0354 181.55C84.5417 175.31 99.0518 172.356 133.752 172.086" stroke="black" stroke-width="3"/>
<path d="M20.1813 177.622C21.1357 176.7 25.4304 176.93 26.8619 177.161" stroke="black" stroke-width="3"/>
<path d="M27.8165 176.699C27.3393 176.469 31.634 176.469 31.634 176.469C31.634 176.469 34.0199 176.469 34.2585 176.699" stroke="black" stroke-width="3"/>
<path d="M35.6899 176.008C49.2897 174.854 49.0511 176.008 49.5282 182.005" stroke="black" stroke-width="3"/>
<path d="M17.3181 188.925C15.8865 188.925 16.3637 176.7 16.3637 176.238" stroke="black" stroke-width="3"/>
<path d="M198.41 34.8403C198.41 40.6069 194.592 84.4333 203.42 83.28" stroke="black" stroke-width="3"/>
<line y1="-1.5" x2="24.3418" y2="-1.5" transform="matrix(0.99982 -0.0189529 0.0202776 0.999794 39.0298 182.466)" stroke="black" stroke-width="3"/>
<line x1="63.9124" y1="181.082" x2="63.9124" y2="201.381" stroke="black" stroke-width="3"/>
<line x1="63.9124" y1="181.082" x2="63.9124" y2="201.381" stroke="black" stroke-width="3"/>
<line x1="42.4392" y1="173.701" x2="42.4392" y2="182.005" stroke="black" stroke-width="3"/>
<line x1="62.481" y1="172.317" x2="62.481" y2="181.543" stroke="black" stroke-width="3"/>
<line x1="62.4124" y1="199.881" x2="66.707" y2="199.881" stroke="black" stroke-width="3"/>
<line x1="62.4124" y1="180.966" x2="66.707" y2="180.966" stroke="black" stroke-width="3"/>
<line x1="67.2527" y1="181.543" x2="67.2527" y2="201.381" stroke="black" stroke-width="3"/>
<path d="M39.0298 194.461L62.4409 195.846" stroke="black" stroke-width="3"/>
<path d="M39.0298 198.382L62.9401 200.922" stroke="black" stroke-width="3"/>
<line y1="-1.5" x2="23.8647" y2="-1.5" transform="matrix(0.999813 -0.0193319 0.0206829 0.999786 39.0298 187.079)" stroke="black" stroke-width="3"/>
<path d="M34.4756 211.042C49.3649 210.442 49.2895 209.915 49.2895 199.766" stroke="black" stroke-width="3"/>
<path d="M39.2685 198.382C40.4615 162.167 29.7248 179.929 31.872 183.388" stroke="black" stroke-width="3"/>
<path d="M31.3954 185.926C30.4411 170.471 24.7488 177.74 24.7488 183.045" stroke="black" stroke-width="3"/>
<path d="M24.2378 185.465C23.0449 173.239 18.5116 176.699 18.273 182.927" stroke="black" stroke-width="3"/>
<path d="M31.3954 185.926C30.4411 170.471 24.7488 177.74 24.7488 183.045" stroke="black" stroke-width="3"/>
<path d="M27.3391 207.839C32.1393 208.216 32.111 204.84 31.6338 204.61" stroke="black" stroke-width="3"/>
<path d="M20.1815 205.532C24.9371 206.189 24.7148 202.072 24.4762 201.842" stroke="black" stroke-width="3"/>
<path d="M159.975 245.743C173.597 245.743 177.653 242.208 179.063 233.748" stroke="black" stroke-width="3"/>
<path d="M175.028 194.23C172.881 178.775 161.184 177.898 156.179 183.389" stroke="black" stroke-width="3"/>
<path d="M85.0785 224.909C97.9255 225.466 97.724 212.453 97.724 212.453" stroke="black" stroke-width="3"/>
<path d="M97.2471 219.373L139.446 228.959L147.897 233.679" stroke="black" stroke-width="3"/>
<path d="M83.8857 182.696C88.5956 180.889 91.9979 183.158 92.4751 184.311" stroke="black" stroke-width="3"/>
<path d="M76.4893 195.845C74.8615 189.477 85.8787 172.397 93.1908 185.465C100.503 198.533 96.3806 218.991 97.2469 219.603" stroke="black" stroke-width="3"/>
<path d="M76.4892 197.459C72.6717 182.237 82.9312 175.085 93.6679 179.006L119.674 179.006L138.046 179.006L144.488 181.545L146.363 176.931" stroke="black" stroke-width="3"/>
<path d="M126.245 172.022L138.046 172.022L146.635 176.93C153.215 159.518 176.937 172.022 176.937 211.991L176.937 226.293L178.845 234.135" stroke="black" stroke-width="3"/>
<path d="M179.084 234.366L193.4 235.98L240.402 234.366L343.474 228.599L346.309 225.861" stroke="black" stroke-width="3"/>
<path d="M320.331 24.6911C323.194 26.0751 328.443 44.9897 328.443 44.9897L330.591 52.3709L333.692 62.9815L338.941 86.2787L341.805 124.569L343.952 161.476L346.811 168.165L346.811 226.235" stroke="black" stroke-width="3"/>
<path d="M140.234 9.93013L168.825 3.93116L199.842 5.54581L261.16 9.93012L292.417 16.2682C294.325 16.6549 296.21 17.0934 298.087 17.6049C304.682 19.4019 320.619 23.8722 320.808 25.1523" stroke="black" stroke-width="3"/>
<line x1="117.766" y1="165.742" x2="125.878" y2="165.742" stroke="black" stroke-width="3"/>
<path d="M125.88 172.274L125.88 130.797L130.888 59.9829L135.66 28.3817L140.67 9.92854" stroke="black" stroke-width="3"/>
<path d="M119.913 10.1592L134.467 12.2351L140.432 9.92854" stroke="black" stroke-width="3"/>
<line y1="-1.5" x2="110.696" y2="-1.5" transform="matrix(0.995788 -0.0916859 0.0980367 0.995183 7.53613 177.391)" stroke="black" stroke-width="3"/>
<line y1="-1.5" x2="156.876" y2="-1.5" transform="matrix(0.0182506 -0.999833 0.999855 0.0170583 117.766 167.242)" stroke="black" stroke-width="3"/>
<line y1="-1.5" x2="68.7971" y2="-1.5" transform="matrix(0.0416163 -0.999134 0.999243 0.038901 7.53613 177.391)" stroke="black" stroke-width="3"/>
<rect x="1.4716" y="1.52606" width="98.1964" height="14.0582" rx="7.02912" transform="matrix(0.999846 0.0175509 -0.0187776 0.999824 231.685 141.393)" stroke="black" stroke-width="3"/>
<line y1="-1.5" x2="35.5499" y2="-1.5" transform="matrix(-0.0402674 0.999189 -0.999291 -0.0376398 133.99 12.2351)" stroke="black" stroke-width="3"/>
<path d="M47.1992 176.255C79.4339 175.847 89.0133 175.732 88.4704 176.255" stroke="black" stroke-width="3"/>
<path d="M7 177.301C7 177.824 20.3997 176.778 20.3997 177.301" stroke="black" stroke-width="3"/>
</g>
<defs>
<filter id="filter0_d_24_30" x="0.53833" y="2.42377" width="351.774" height="252.798" filterUnits="userSpaceOnUse" color-interpolation-filters="sRGB">
<feFlood flood-opacity="0" result="BackgroundImageFix"/>
<feColorMatrix in="SourceAlpha" type="matrix" values="0 0 0 0 0 0 0 0 0 0 0 0 0 0 0 0 0 0 127 0" result="hardAlpha"/>
<feOffset dy="4"/>
<feGaussianBlur stdDeviation="2"/>
<feComposite in2="hardAlpha" operator="out"/>
<feColorMatrix type="matrix" values="0 0 0 0 0 0 0 0 0 0 0 0 0 0 0 0 0 0 0.25 0"/>
<feBlend mode="normal" in2="BackgroundImageFix" result="effect1_dropShadow_24_30"/>
<feBlend mode="normal" in="SourceGraphic" in2="effect1_dropShadow_24_30" result="shape"/>
</filter>
</defs>
</svg>
