<svg width="220" height="118" viewBox="0 0 220 118" fill="none" xmlns="http://www.w3.org/2000/svg">
<rect width="220" height="117.276" fill="#002091"/>
<path d="M26.1671 91.7313C15.1615 91.7313 14.6001 94.1539 26.1673 75.2704C33.0259 64.0737 38.4957 41.8575 51.5123 36.4351C79.489 21.3004 88.6615 22.5956 85.1615 33.5281" stroke="#DDC167" stroke-width="2"/>
<line x1="52.5123" y1="35.4352" x2="74.5123" y2="35.4352" stroke="#DDC167" stroke-width="2"/>
<path d="M98.425 35.946C102.87 15.4325 131.575 13.154 205.425 17.0625" stroke="#DDC167" stroke-width="2"/>
<rect x="6" y="9" width="208" height="101" stroke="white" stroke-width="2"/>
<path d="M102.509 36.2445C112.543 29.3827 146.359 30.7407 201 31.9999" stroke="#DDC167" stroke-width="2"/>
<path d="M108 28C118.034 21.1382 147.359 22.7408 202 24" stroke="#DDC167" stroke-width="2"/>
<path d="M60.3333 50.0133C59.8604 51.1618 59.32 52.6142 58.712 54.3707C58.104 56.1271 57.4284 58.0187 56.6853 60.0453C55.9422 62.0044 55.1653 64.0649 54.3547 66.2267C53.6116 68.3209 52.8347 70.3813 52.024 72.408H61.9547C61.8196 70.3813 61.6507 68.3209 61.448 66.2267C61.2453 64.0649 61.0764 62.0044 60.9413 60.0453C60.8062 58.0187 60.6711 56.1271 60.536 54.3707C60.4009 52.6142 60.3333 51.1618 60.3333 50.0133ZM55.976 40.9947H67.6293L73.7093 87H63.4747L62.5627 78.9947H49.6933L46.4507 87H36.7227L55.976 40.9947ZM89.6901 62.376L93.9461 62.5787C97.7968 62.5787 100.094 60.1804 100.837 55.384C101.647 50.4524 99.891 47.9867 95.5674 47.9867C94.5541 47.9867 93.2368 48.0542 91.6154 48.1893L89.6901 62.376ZM92.2234 69.5707L88.6768 69.4693L86.2448 87H77.0234L83.5088 40.9947C83.5088 40.9947 87.6297 40.8933 95.8714 40.6907C101.749 40.6907 105.802 41.8053 108.031 44.0347C110.396 46.264 111.24 50.1147 110.565 55.5867C110.024 59.2347 108.842 62.1058 107.018 64.2C105.194 66.2267 103.201 67.5778 101.039 68.2533L107.423 87H97.0874L92.2234 69.5707Z" fill="#DDC167"/>
<path d="M130.568 49.968H127.624L125.928 62H122.856L124.52 49.968H121.544L121.864 47.472H130.952L130.568 49.968ZM135.95 54.224L137.294 54.288C138.51 54.288 139.236 53.5307 139.47 52.016C139.726 50.4587 139.172 49.68 137.806 49.68C137.486 49.68 137.07 49.7013 136.558 49.744L135.95 54.224ZM136.75 56.496L135.63 56.464L134.862 62H131.95L133.998 47.472C133.998 47.472 135.3 47.44 137.902 47.376C139.758 47.376 141.038 47.728 141.742 48.432C142.489 49.136 142.756 50.352 142.542 52.08C142.372 53.232 141.998 54.1387 141.422 54.8C140.846 55.44 140.217 55.8667 139.534 56.08L141.55 62H138.286L136.75 56.496ZM151.242 50.32C151.093 50.6827 150.922 51.1413 150.73 51.696C150.538 52.2507 150.325 52.848 150.09 53.488C149.856 54.1067 149.61 54.7573 149.354 55.44C149.12 56.1013 148.874 56.752 148.618 57.392H151.754C151.712 56.752 151.658 56.1013 151.594 55.44C151.53 54.7573 151.477 54.1067 151.434 53.488C151.392 52.848 151.349 52.2507 151.306 51.696C151.264 51.1413 151.242 50.6827 151.242 50.32ZM149.866 47.472H153.546L155.466 62H152.234L151.946 59.472H147.882L146.858 62H143.786L149.866 47.472ZM161.313 47.472L164.609 56.592H164.641C164.683 56.464 164.737 55.9307 164.801 54.992L165.857 47.472H168.577L166.529 62H163.809L160.417 52.848C160.395 52.9973 160.374 53.2213 160.353 53.52C160.331 53.8187 160.289 54.1387 160.225 54.48L159.201 62H156.513L158.561 47.472H161.313ZM176.345 47.216C177.369 47.216 178.126 47.312 178.617 47.504C179.108 47.696 179.449 47.8453 179.641 47.952C179.854 48.0587 180.014 48.1333 180.121 48.176L179.065 50.384L178.649 50.16C177.774 49.7333 177.006 49.52 176.345 49.52C175.79 49.52 175.3 49.712 174.873 50.096C174.489 50.4587 174.297 50.8 174.297 51.12C174.233 51.568 174.308 51.952 174.521 52.272C174.756 52.592 175.054 52.8907 175.417 53.168C175.78 53.4453 176.174 53.7227 176.601 54C177.049 54.2773 177.444 54.5973 177.785 54.96C178.638 55.792 178.969 56.8373 178.777 58.096C178.606 59.3547 178.062 60.368 177.145 61.136C176.228 61.904 174.969 62.288 173.369 62.288C172.068 62.288 170.937 62.0213 169.977 61.488C169.785 61.36 169.625 61.264 169.497 61.2L170.521 58.992C170.628 59.0347 170.766 59.1093 170.937 59.216C171.129 59.3227 171.342 59.4187 171.577 59.504C172.174 59.76 172.729 59.888 173.241 59.888C174.18 59.888 174.884 59.568 175.353 58.928C175.502 58.736 175.598 58.4693 175.641 58.128C175.705 57.7653 175.62 57.4453 175.385 57.168C175.15 56.8693 174.852 56.592 174.489 56.336C174.126 56.0587 173.732 55.7813 173.305 55.504C172.878 55.2053 172.484 54.8747 172.121 54.512C171.289 53.68 170.958 52.6347 171.129 51.376C171.3 50.096 171.844 49.0827 172.761 48.336C173.678 47.5893 174.873 47.216 176.345 47.216Z" fill="#DDC167"/>
<line x1="121" y1="62" x2="180" y2="62" stroke="#DDC167" stroke-width="2"/>
<circle cx="55.5" cy="87.5" r="6.5" stroke="url(#paint0_radial_24_13)" stroke-width="2"/>
<defs>
<radialGradient id="paint0_radial_24_13" cx="0" cy="0" r="1" gradientUnits="userSpaceOnUse" gradientTransform="translate(63 106) rotate(-116.03) scale(47.8539)">
<stop stop-color="#DDC167"/>
<stop offset="1" stop-color="#DDC167" stop-opacity="0"/>
</radialGradient>
</defs>
</svg>
